<?xml version="1.0" standalone="no"?>
<!DOCTYPE svg PUBLIC "-//W3C//DTD SVG 1.1//EN" "http://www.w3.org/Graphics/SVG/1.1/DTD/svg11.dtd">
<svg width="800" height="600" version="1.1" xmlns="http://www.w3.org/2000/svg">
<rect width="800" height="600" x="0" y="0" style="fill:rgb(238,238,238);stroke:none"/>
<rect width="800" height="600" x="0" y="0" style="fill:rgb(255,255,255);stroke:none"/>
<text x="2" y="560" fill="rgb(0,0,0)" font-family="Arial" font-size="12">1</text>
<text x="359" y="30" fill="rgb(0,0,0)" font-family="Arial" font-size="12">Quality per tile</text>
<line x1="13" y1="560" x2="790" y2="560" stroke="rgb(0,0,0)" stroke-width="1"/>
<line x1="13" y1="560" x2="13" y2="40" stroke="rgb(0,0,0)" stroke-width="1"/>
<text x="342" y="595" fill="rgb(0,0,0)" font-family="Arial" font-size="12">Position in read (bp)</text>
<text x="18" y="575" fill="rgb(0,0,0)" font-family="Arial" font-size="12">1</text>
<text x="36" y="575" fill="rgb(0,0,0)" font-family="Arial" font-size="12">2</text>
<text x="54" y="575" fill="rgb(0,0,0)" font-family="Arial" font-size="12">3</text>
<text x="72" y="575" fill="rgb(0,0,0)" font-family="Arial" font-size="12">4</text>
<text x="90" y="575" fill="rgb(0,0,0)" font-family="Arial" font-size="12">5</text>
<text x="108" y="575" fill="rgb(0,0,0)" font-family="Arial" font-size="12">6</text>
<text x="126" y="575" fill="rgb(0,0,0)" font-family="Arial" font-size="12">7</text>
<text x="144" y="575" fill="rgb(0,0,0)" font-family="Arial" font-size="12">8</text>
<text x="162" y="575" fill="rgb(0,0,0)" font-family="Arial" font-size="12">9</text>
<text x="183" y="575" fill="rgb(0,0,0)" font-family="Arial" font-size="12">12-13</text>
<text x="237" y="575" fill="rgb(0,0,0)" font-family="Arial" font-size="12">18-19</text>
<text x="291" y="575" fill="rgb(0,0,0)" font-family="Arial" font-size="12">24-25</text>
<text x="345" y="575" fill="rgb(0,0,0)" font-family="Arial" font-size="12">30-31</text>
<text x="399" y="575" fill="rgb(0,0,0)" font-family="Arial" font-size="12">36-37</text>
<text x="453" y="575" fill="rgb(0,0,0)" font-family="Arial" font-size="12">42-43</text>
<text x="507" y="575" fill="rgb(0,0,0)" font-family="Arial" font-size="12">48-49</text>
<text x="561" y="575" fill="rgb(0,0,0)" font-family="Arial" font-size="12">54-55</text>
<text x="615" y="575" fill="rgb(0,0,0)" font-family="Arial" font-size="12">60-61</text>
<text x="669" y="575" fill="rgb(0,0,0)" font-family="Arial" font-size="12">66-67</text>
<text x="723" y="575" fill="rgb(0,0,0)" font-family="Arial" font-size="12">72-73</text>
<text x="770" y="575" fill="rgb(0,0,0)" font-family="Arial" font-size="12">76</text>
<rect width="18" height="520" x="13" y="40" style="fill:rgb(0,0,200);stroke:none"/>
<rect width="18" height="520" x="31" y="40" style="fill:rgb(0,0,200);stroke:none"/>
<rect width="18" height="520" x="49" y="40" style="fill:rgb(0,0,200);stroke:none"/>
<rect width="18" height="520" x="67" y="40" style="fill:rgb(0,0,200);stroke:none"/>
<rect width="18" height="520" x="85" y="40" style="fill:rgb(0,0,200);stroke:none"/>
<rect width="18" height="520" x="103" y="40" style="fill:rgb(0,0,200);stroke:none"/>
<rect width="18" height="520" x="121" y="40" style="fill:rgb(0,0,200);stroke:none"/>
<rect width="18" height="520" x="139" y="40" style="fill:rgb(0,0,200);stroke:none"/>
<rect width="18" height="520" x="157" y="40" style="fill:rgb(0,0,200);stroke:none"/>
<rect width="18" height="520" x="175" y="40" style="fill:rgb(0,0,200);stroke:none"/>
<rect width="18" height="520" x="193" y="40" style="fill:rgb(0,0,200);stroke:none"/>
<rect width="18" height="520" x="211" y="40" style="fill:rgb(0,0,200);stroke:none"/>
<rect width="18" height="520" x="229" y="40" style="fill:rgb(0,0,200);stroke:none"/>
<rect width="18" height="520" x="247" y="40" style="fill:rgb(0,0,200);stroke:none"/>
<rect width="18" height="520" x="265" y="40" style="fill:rgb(0,0,200);stroke:none"/>
<rect width="18" height="520" x="283" y="40" style="fill:rgb(0,0,200);stroke:none"/>
<rect width="18" height="520" x="301" y="40" style="fill:rgb(0,0,200);stroke:none"/>
<rect width="18" height="520" x="319" y="40" style="fill:rgb(0,0,200);stroke:none"/>
<rect width="18" height="520" x="337" y="40" style="fill:rgb(0,0,200);stroke:none"/>
<rect width="18" height="520" x="355" y="40" style="fill:rgb(0,0,200);stroke:none"/>
<rect width="18" height="520" x="373" y="40" style="fill:rgb(0,0,200);stroke:none"/>
<rect width="18" height="520" x="391" y="40" style="fill:rgb(0,0,200);stroke:none"/>
<rect width="18" height="520" x="409" y="40" style="fill:rgb(0,0,200);stroke:none"/>
<rect width="18" height="520" x="427" y="40" style="fill:rgb(0,0,200);stroke:none"/>
<rect width="18" height="520" x="445" y="40" style="fill:rgb(0,0,200);stroke:none"/>
<rect width="18" height="520" x="463" y="40" style="fill:rgb(0,0,200);stroke:none"/>
<rect width="18" height="520" x="481" y="40" style="fill:rgb(0,0,200);stroke:none"/>
<rect width="18" height="520" x="499" y="40" style="fill:rgb(0,0,200);stroke:none"/>
<rect width="18" height="520" x="517" y="40" style="fill:rgb(0,0,200);stroke:none"/>
<rect width="18" height="520" x="535" y="40" style="fill:rgb(0,0,200);stroke:none"/>
<rect width="18" height="520" x="553" y="40" style="fill:rgb(0,0,200);stroke:none"/>
<rect width="18" height="520" x="571" y="40" style="fill:rgb(0,0,200);stroke:none"/>
<rect width="18" height="520" x="589" y="40" style="fill:rgb(0,0,200);stroke:none"/>
<rect width="18" height="520" x="607" y="40" style="fill:rgb(0,0,200);stroke:none"/>
<rect width="18" height="520" x="625" y="40" style="fill:rgb(0,0,200);stroke:none"/>
<rect width="18" height="520" x="643" y="40" style="fill:rgb(0,0,200);stroke:none"/>
<rect width="18" height="520" x="661" y="40" style="fill:rgb(0,0,200);stroke:none"/>
<rect width="18" height="520" x="679" y="40" style="fill:rgb(0,0,200);stroke:none"/>
<rect width="18" height="520" x="697" y="40" style="fill:rgb(0,0,200);stroke:none"/>
<rect width="18" height="520" x="715" y="40" style="fill:rgb(0,0,200);stroke:none"/>
<rect width="18" height="520" x="733" y="40" style="fill:rgb(0,0,200);stroke:none"/>
<rect width="18" height="520" x="751" y="40" style="fill:rgb(0,0,200);stroke:none"/>
<rect width="18" height="520" x="769" y="40" style="fill:rgb(0,0,200);stroke:none"/>
</svg>
