<?xml version="1.0" standalone="no"?>
<!DOCTYPE svg PUBLIC "-//W3C//DTD SVG 1.1//EN" "http://www.w3.org/Graphics/SVG/1.1/DTD/svg11.dtd">
<svg width="800" height="600" version="1.1" xmlns="http://www.w3.org/2000/svg">
<rect width="800" height="600" x="0" y="0" style="fill:rgb(238,238,238);stroke:none"/>
<rect width="800" height="600" x="0" y="0" style="fill:rgb(255,255,255);stroke:none"/>
<text x="2" y="566" fill="rgb(0,0,0)" font-family="Arial" font-size="12">0</text>
<text x="2" y="540" fill="rgb(0,0,0)" font-family="Arial" font-size="12">2</text>
<text x="2" y="514" fill="rgb(0,0,0)" font-family="Arial" font-size="12">4</text>
<text x="2" y="488" fill="rgb(0,0,0)" font-family="Arial" font-size="12">6</text>
<text x="2" y="462" fill="rgb(0,0,0)" font-family="Arial" font-size="12">8</text>
<text x="2" y="436" fill="rgb(0,0,0)" font-family="Arial" font-size="12">10</text>
<text x="2" y="410" fill="rgb(0,0,0)" font-family="Arial" font-size="12">12</text>
<text x="2" y="384" fill="rgb(0,0,0)" font-family="Arial" font-size="12">14</text>
<text x="2" y="358" fill="rgb(0,0,0)" font-family="Arial" font-size="12">16</text>
<text x="2" y="332" fill="rgb(0,0,0)" font-family="Arial" font-size="12">18</text>
<text x="2" y="306" fill="rgb(0,0,0)" font-family="Arial" font-size="12">20</text>
<text x="2" y="280" fill="rgb(0,0,0)" font-family="Arial" font-size="12">22</text>
<text x="2" y="254" fill="rgb(0,0,0)" font-family="Arial" font-size="12">24</text>
<text x="2" y="228" fill="rgb(0,0,0)" font-family="Arial" font-size="12">26</text>
<text x="2" y="202" fill="rgb(0,0,0)" font-family="Arial" font-size="12">28</text>
<text x="2" y="176" fill="rgb(0,0,0)" font-family="Arial" font-size="12">30</text>
<text x="2" y="150" fill="rgb(0,0,0)" font-family="Arial" font-size="12">32</text>
<text x="2" y="124" fill="rgb(0,0,0)" font-family="Arial" font-size="12">34</text>
<text x="2" y="98" fill="rgb(0,0,0)" font-family="Arial" font-size="12">36</text>
<text x="2" y="72" fill="rgb(0,0,0)" font-family="Arial" font-size="12">38</text>
<text x="2" y="46" fill="rgb(0,0,0)" font-family="Arial" font-size="12">40</text>
<text x="223" y="30" fill="rgb(0,0,0)" font-family="Arial" font-size="12">Quality scores across all bases (Sanger / Illumina 1.9 encoding)</text>
<rect width="17" height="260" x="21" y="300" style="fill:rgb(230,175,175);stroke:none"/>
<rect width="17" height="104" x="21" y="196" style="fill:rgb(230,215,175);stroke:none"/>
<rect width="17" height="156" x="21" y="40" style="fill:rgb(175,230,175);stroke:none"/>
<text x="25" y="575" fill="rgb(0,0,0)" font-family="Arial" font-size="12">1</text>
<rect width="17" height="260" x="38" y="300" style="fill:rgb(230,195,195);stroke:none"/>
<rect width="17" height="104" x="38" y="196" style="fill:rgb(230,220,195);stroke:none"/>
<rect width="17" height="156" x="38" y="40" style="fill:rgb(195,230,195);stroke:none"/>
<text x="42" y="575" fill="rgb(0,0,0)" font-family="Arial" font-size="12">2</text>
<rect width="17" height="260" x="55" y="300" style="fill:rgb(230,175,175);stroke:none"/>
<rect width="17" height="104" x="55" y="196" style="fill:rgb(230,215,175);stroke:none"/>
<rect width="17" height="156" x="55" y="40" style="fill:rgb(175,230,175);stroke:none"/>
<text x="59" y="575" fill="rgb(0,0,0)" font-family="Arial" font-size="12">3</text>
<rect width="17" height="260" x="72" y="300" style="fill:rgb(230,195,195);stroke:none"/>
<rect width="17" height="104" x="72" y="196" style="fill:rgb(230,220,195);stroke:none"/>
<rect width="17" height="156" x="72" y="40" style="fill:rgb(195,230,195);stroke:none"/>
<text x="76" y="575" fill="rgb(0,0,0)" font-family="Arial" font-size="12">4</text>
<rect width="17" height="260" x="89" y="300" style="fill:rgb(230,175,175);stroke:none"/>
<rect width="17" height="104" x="89" y="196" style="fill:rgb(230,215,175);stroke:none"/>
<rect width="17" height="156" x="89" y="40" style="fill:rgb(175,230,175);stroke:none"/>
<text x="93" y="575" fill="rgb(0,0,0)" font-family="Arial" font-size="12">5</text>
<rect width="17" height="260" x="106" y="300" style="fill:rgb(230,195,195);stroke:none"/>
<rect width="17" height="104" x="106" y="196" style="fill:rgb(230,220,195);stroke:none"/>
<rect width="17" height="156" x="106" y="40" style="fill:rgb(195,230,195);stroke:none"/>
<text x="110" y="575" fill="rgb(0,0,0)" font-family="Arial" font-size="12">6</text>
<rect width="17" height="260" x="123" y="300" style="fill:rgb(230,175,175);stroke:none"/>
<rect width="17" height="104" x="123" y="196" style="fill:rgb(230,215,175);stroke:none"/>
<rect width="17" height="156" x="123" y="40" style="fill:rgb(175,230,175);stroke:none"/>
<text x="127" y="575" fill="rgb(0,0,0)" font-family="Arial" font-size="12">7</text>
<rect width="17" height="260" x="140" y="300" style="fill:rgb(230,195,195);stroke:none"/>
<rect width="17" height="104" x="140" y="196" style="fill:rgb(230,220,195);stroke:none"/>
<rect width="17" height="156" x="140" y="40" style="fill:rgb(195,230,195);stroke:none"/>
<text x="144" y="575" fill="rgb(0,0,0)" font-family="Arial" font-size="12">8</text>
<rect width="17" height="260" x="157" y="300" style="fill:rgb(230,175,175);stroke:none"/>
<rect width="17" height="104" x="157" y="196" style="fill:rgb(230,215,175);stroke:none"/>
<rect width="17" height="156" x="157" y="40" style="fill:rgb(175,230,175);stroke:none"/>
<text x="161" y="575" fill="rgb(0,0,0)" font-family="Arial" font-size="12">9</text>
<rect width="17" height="260" x="174" y="300" style="fill:rgb(230,195,195);stroke:none"/>
<rect width="17" height="104" x="174" y="196" style="fill:rgb(230,220,195);stroke:none"/>
<rect width="17" height="156" x="174" y="40" style="fill:rgb(195,230,195);stroke:none"/>
<rect width="17" height="260" x="191" y="300" style="fill:rgb(230,175,175);stroke:none"/>
<rect width="17" height="104" x="191" y="196" style="fill:rgb(230,215,175);stroke:none"/>
<rect width="17" height="156" x="191" y="40" style="fill:rgb(175,230,175);stroke:none"/>
<text x="180" y="575" fill="rgb(0,0,0)" font-family="Arial" font-size="12">12-13</text>
<rect width="17" height="260" x="208" y="300" style="fill:rgb(230,195,195);stroke:none"/>
<rect width="17" height="104" x="208" y="196" style="fill:rgb(230,220,195);stroke:none"/>
<rect width="17" height="156" x="208" y="40" style="fill:rgb(195,230,195);stroke:none"/>
<rect width="17" height="260" x="225" y="300" style="fill:rgb(230,175,175);stroke:none"/>
<rect width="17" height="104" x="225" y="196" style="fill:rgb(230,215,175);stroke:none"/>
<rect width="17" height="156" x="225" y="40" style="fill:rgb(175,230,175);stroke:none"/>
<rect width="17" height="260" x="242" y="300" style="fill:rgb(230,195,195);stroke:none"/>
<rect width="17" height="104" x="242" y="196" style="fill:rgb(230,220,195);stroke:none"/>
<rect width="17" height="156" x="242" y="40" style="fill:rgb(195,230,195);stroke:none"/>
<text x="231" y="575" fill="rgb(0,0,0)" font-family="Arial" font-size="12">18-19</text>
<rect width="17" height="260" x="259" y="300" style="fill:rgb(230,175,175);stroke:none"/>
<rect width="17" height="104" x="259" y="196" style="fill:rgb(230,215,175);stroke:none"/>
<rect width="17" height="156" x="259" y="40" style="fill:rgb(175,230,175);stroke:none"/>
<rect width="17" height="260" x="276" y="300" style="fill:rgb(230,195,195);stroke:none"/>
<rect width="17" height="104" x="276" y="196" style="fill:rgb(230,220,195);stroke:none"/>
<rect width="17" height="156" x="276" y="40" style="fill:rgb(195,230,195);stroke:none"/>
<rect width="17" height="260" x="293" y="300" style="fill:rgb(230,175,175);stroke:none"/>
<rect width="17" height="104" x="293" y="196" style="fill:rgb(230,215,175);stroke:none"/>
<rect width="17" height="156" x="293" y="40" style="fill:rgb(175,230,175);stroke:none"/>
<text x="282" y="575" fill="rgb(0,0,0)" font-family="Arial" font-size="12">24-25</text>
<rect width="17" height="260" x="310" y="300" style="fill:rgb(230,195,195);stroke:none"/>
<rect width="17" height="104" x="310" y="196" style="fill:rgb(230,220,195);stroke:none"/>
<rect width="17" height="156" x="310" y="40" style="fill:rgb(195,230,195);stroke:none"/>
<rect width="17" height="260" x="327" y="300" style="fill:rgb(230,175,175);stroke:none"/>
<rect width="17" height="104" x="327" y="196" style="fill:rgb(230,215,175);stroke:none"/>
<rect width="17" height="156" x="327" y="40" style="fill:rgb(175,230,175);stroke:none"/>
<rect width="17" height="260" x="344" y="300" style="fill:rgb(230,195,195);stroke:none"/>
<rect width="17" height="104" x="344" y="196" style="fill:rgb(230,220,195);stroke:none"/>
<rect width="17" height="156" x="344" y="40" style="fill:rgb(195,230,195);stroke:none"/>
<text x="333" y="575" fill="rgb(0,0,0)" font-family="Arial" font-size="12">30-31</text>
<rect width="17" height="260" x="361" y="300" style="fill:rgb(230,175,175);stroke:none"/>
<rect width="17" height="104" x="361" y="196" style="fill:rgb(230,215,175);stroke:none"/>
<rect width="17" height="156" x="361" y="40" style="fill:rgb(175,230,175);stroke:none"/>
<rect width="17" height="260" x="378" y="300" style="fill:rgb(230,195,195);stroke:none"/>
<rect width="17" height="104" x="378" y="196" style="fill:rgb(230,220,195);stroke:none"/>
<rect width="17" height="156" x="378" y="40" style="fill:rgb(195,230,195);stroke:none"/>
<rect width="17" height="260" x="395" y="300" style="fill:rgb(230,175,175);stroke:none"/>
<rect width="17" height="104" x="395" y="196" style="fill:rgb(230,215,175);stroke:none"/>
<rect width="17" height="156" x="395" y="40" style="fill:rgb(175,230,175);stroke:none"/>
<text x="384" y="575" fill="rgb(0,0,0)" font-family="Arial" font-size="12">36-37</text>
<rect width="17" height="260" x="412" y="300" style="fill:rgb(230,195,195);stroke:none"/>
<rect width="17" height="104" x="412" y="196" style="fill:rgb(230,220,195);stroke:none"/>
<rect width="17" height="156" x="412" y="40" style="fill:rgb(195,230,195);stroke:none"/>
<rect width="17" height="260" x="429" y="300" style="fill:rgb(230,175,175);stroke:none"/>
<rect width="17" height="104" x="429" y="196" style="fill:rgb(230,215,175);stroke:none"/>
<rect width="17" height="156" x="429" y="40" style="fill:rgb(175,230,175);stroke:none"/>
<rect width="17" height="260" x="446" y="300" style="fill:rgb(230,195,195);stroke:none"/>
<rect width="17" height="104" x="446" y="196" style="fill:rgb(230,220,195);stroke:none"/>
<rect width="17" height="156" x="446" y="40" style="fill:rgb(195,230,195);stroke:none"/>
<text x="435" y="575" fill="rgb(0,0,0)" font-family="Arial" font-size="12">42-43</text>
<rect width="17" height="260" x="463" y="300" style="fill:rgb(230,175,175);stroke:none"/>
<rect width="17" height="104" x="463" y="196" style="fill:rgb(230,215,175);stroke:none"/>
<rect width="17" height="156" x="463" y="40" style="fill:rgb(175,230,175);stroke:none"/>
<rect width="17" height="260" x="480" y="300" style="fill:rgb(230,195,195);stroke:none"/>
<rect width="17" height="104" x="480" y="196" style="fill:rgb(230,220,195);stroke:none"/>
<rect width="17" height="156" x="480" y="40" style="fill:rgb(195,230,195);stroke:none"/>
<rect width="17" height="260" x="497" y="300" style="fill:rgb(230,175,175);stroke:none"/>
<rect width="17" height="104" x="497" y="196" style="fill:rgb(230,215,175);stroke:none"/>
<rect width="17" height="156" x="497" y="40" style="fill:rgb(175,230,175);stroke:none"/>
<text x="486" y="575" fill="rgb(0,0,0)" font-family="Arial" font-size="12">48-49</text>
<rect width="17" height="260" x="514" y="300" style="fill:rgb(230,195,195);stroke:none"/>
<rect width="17" height="104" x="514" y="196" style="fill:rgb(230,220,195);stroke:none"/>
<rect width="17" height="156" x="514" y="40" style="fill:rgb(195,230,195);stroke:none"/>
<rect width="17" height="260" x="531" y="300" style="fill:rgb(230,175,175);stroke:none"/>
<rect width="17" height="104" x="531" y="196" style="fill:rgb(230,215,175);stroke:none"/>
<rect width="17" height="156" x="531" y="40" style="fill:rgb(175,230,175);stroke:none"/>
<rect width="17" height="260" x="548" y="300" style="fill:rgb(230,195,195);stroke:none"/>
<rect width="17" height="104" x="548" y="196" style="fill:rgb(230,220,195);stroke:none"/>
<rect width="17" height="156" x="548" y="40" style="fill:rgb(195,230,195);stroke:none"/>
<text x="537" y="575" fill="rgb(0,0,0)" font-family="Arial" font-size="12">54-55</text>
<rect width="17" height="260" x="565" y="300" style="fill:rgb(230,175,175);stroke:none"/>
<rect width="17" height="104" x="565" y="196" style="fill:rgb(230,215,175);stroke:none"/>
<rect width="17" height="156" x="565" y="40" style="fill:rgb(175,230,175);stroke:none"/>
<rect width="17" height="260" x="582" y="300" style="fill:rgb(230,195,195);stroke:none"/>
<rect width="17" height="104" x="582" y="196" style="fill:rgb(230,220,195);stroke:none"/>
<rect width="17" height="156" x="582" y="40" style="fill:rgb(195,230,195);stroke:none"/>
<rect width="17" height="260" x="599" y="300" style="fill:rgb(230,175,175);stroke:none"/>
<rect width="17" height="104" x="599" y="196" style="fill:rgb(230,215,175);stroke:none"/>
<rect width="17" height="156" x="599" y="40" style="fill:rgb(175,230,175);stroke:none"/>
<text x="588" y="575" fill="rgb(0,0,0)" font-family="Arial" font-size="12">60-61</text>
<rect width="17" height="260" x="616" y="300" style="fill:rgb(230,195,195);stroke:none"/>
<rect width="17" height="104" x="616" y="196" style="fill:rgb(230,220,195);stroke:none"/>
<rect width="17" height="156" x="616" y="40" style="fill:rgb(195,230,195);stroke:none"/>
<rect width="17" height="260" x="633" y="300" style="fill:rgb(230,175,175);stroke:none"/>
<rect width="17" height="104" x="633" y="196" style="fill:rgb(230,215,175);stroke:none"/>
<rect width="17" height="156" x="633" y="40" style="fill:rgb(175,230,175);stroke:none"/>
<rect width="17" height="260" x="650" y="300" style="fill:rgb(230,195,195);stroke:none"/>
<rect width="17" height="104" x="650" y="196" style="fill:rgb(230,220,195);stroke:none"/>
<rect width="17" height="156" x="650" y="40" style="fill:rgb(195,230,195);stroke:none"/>
<text x="639" y="575" fill="rgb(0,0,0)" font-family="Arial" font-size="12">66-67</text>
<rect width="17" height="260" x="667" y="300" style="fill:rgb(230,175,175);stroke:none"/>
<rect width="17" height="104" x="667" y="196" style="fill:rgb(230,215,175);stroke:none"/>
<rect width="17" height="156" x="667" y="40" style="fill:rgb(175,230,175);stroke:none"/>
<rect width="17" height="260" x="684" y="300" style="fill:rgb(230,195,195);stroke:none"/>
<rect width="17" height="104" x="684" y="196" style="fill:rgb(230,220,195);stroke:none"/>
<rect width="17" height="156" x="684" y="40" style="fill:rgb(195,230,195);stroke:none"/>
<rect width="17" height="260" x="701" y="300" style="fill:rgb(230,175,175);stroke:none"/>
<rect width="17" height="104" x="701" y="196" style="fill:rgb(230,215,175);stroke:none"/>
<rect width="17" height="156" x="701" y="40" style="fill:rgb(175,230,175);stroke:none"/>
<text x="690" y="575" fill="rgb(0,0,0)" font-family="Arial" font-size="12">72-73</text>
<rect width="17" height="260" x="718" y="300" style="fill:rgb(230,195,195);stroke:none"/>
<rect width="17" height="104" x="718" y="196" style="fill:rgb(230,220,195);stroke:none"/>
<rect width="17" height="156" x="718" y="40" style="fill:rgb(195,230,195);stroke:none"/>
<rect width="17" height="260" x="735" y="300" style="fill:rgb(230,175,175);stroke:none"/>
<rect width="17" height="104" x="735" y="196" style="fill:rgb(230,215,175);stroke:none"/>
<rect width="17" height="156" x="735" y="40" style="fill:rgb(175,230,175);stroke:none"/>
<text x="735" y="575" fill="rgb(0,0,0)" font-family="Arial" font-size="12">76</text>
<line x1="21" y1="560" x2="790" y2="560" stroke="rgb(0,0,0)" stroke-width="1"/>
<line x1="21" y1="560" x2="21" y2="40" stroke="rgb(0,0,0)" stroke-width="1"/>
<text x="342" y="595" fill="rgb(0,0,0)" font-family="Arial" font-size="12">Position in read (bp)</text>
<rect width="13" height="39" x="23" y="53" style="fill:rgb(240,240,0);stroke:none"/>
<rect width="13" height="39" x="23" y="53" rx="0" ry="0" style="fill:none;stroke-width:1;stroke:rgb(0,0,0)"/>
<line x1="29" y1="53" x2="29" y2="53" stroke="rgb(0,0,0)" stroke-width="1"/>
<line x1="23" y1="53" x2="36" y2="53" stroke="rgb(0,0,0)" stroke-width="1"/>
<line x1="29" y1="222" x2="29" y2="92" stroke="rgb(0,0,0)" stroke-width="1"/>
<line x1="23" y1="222" x2="36" y2="222" stroke="rgb(0,0,0)" stroke-width="1"/>
<line x1="23" y1="53" x2="36" y2="53" stroke="rgb(200,0,0)" stroke-width="1"/>
<rect width="13" height="52" x="40" y="53" style="fill:rgb(240,240,0);stroke:none"/>
<rect width="13" height="52" x="40" y="53" rx="0" ry="0" style="fill:none;stroke-width:1;stroke:rgb(0,0,0)"/>
<line x1="46" y1="53" x2="46" y2="53" stroke="rgb(0,0,0)" stroke-width="1"/>
<line x1="40" y1="53" x2="53" y2="53" stroke="rgb(0,0,0)" stroke-width="1"/>
<line x1="46" y1="287" x2="46" y2="105" stroke="rgb(0,0,0)" stroke-width="1"/>
<line x1="40" y1="287" x2="53" y2="287" stroke="rgb(0,0,0)" stroke-width="1"/>
<line x1="40" y1="53" x2="53" y2="53" stroke="rgb(200,0,0)" stroke-width="1"/>
<rect width="13" height="39" x="57" y="53" style="fill:rgb(240,240,0);stroke:none"/>
<rect width="13" height="39" x="57" y="53" rx="0" ry="0" style="fill:none;stroke-width:1;stroke:rgb(0,0,0)"/>
<line x1="63" y1="53" x2="63" y2="53" stroke="rgb(0,0,0)" stroke-width="1"/>
<line x1="57" y1="53" x2="70" y2="53" stroke="rgb(0,0,0)" stroke-width="1"/>
<line x1="63" y1="287" x2="63" y2="92" stroke="rgb(0,0,0)" stroke-width="1"/>
<line x1="57" y1="287" x2="70" y2="287" stroke="rgb(0,0,0)" stroke-width="1"/>
<line x1="57" y1="53" x2="70" y2="53" stroke="rgb(200,0,0)" stroke-width="1"/>
<rect width="13" height="39" x="74" y="53" style="fill:rgb(240,240,0);stroke:none"/>
<rect width="13" height="39" x="74" y="53" rx="0" ry="0" style="fill:none;stroke-width:1;stroke:rgb(0,0,0)"/>
<line x1="80" y1="53" x2="80" y2="53" stroke="rgb(0,0,0)" stroke-width="1"/>
<line x1="74" y1="53" x2="87" y2="53" stroke="rgb(0,0,0)" stroke-width="1"/>
<line x1="80" y1="300" x2="80" y2="92" stroke="rgb(0,0,0)" stroke-width="1"/>
<line x1="74" y1="300" x2="87" y2="300" stroke="rgb(0,0,0)" stroke-width="1"/>
<line x1="74" y1="53" x2="87" y2="53" stroke="rgb(200,0,0)" stroke-width="1"/>
<rect width="13" height="39" x="91" y="53" style="fill:rgb(240,240,0);stroke:none"/>
<rect width="13" height="39" x="91" y="53" rx="0" ry="0" style="fill:none;stroke-width:1;stroke:rgb(0,0,0)"/>
<line x1="97" y1="53" x2="97" y2="53" stroke="rgb(0,0,0)" stroke-width="1"/>
<line x1="91" y1="53" x2="104" y2="53" stroke="rgb(0,0,0)" stroke-width="1"/>
<line x1="97" y1="287" x2="97" y2="92" stroke="rgb(0,0,0)" stroke-width="1"/>
<line x1="91" y1="287" x2="104" y2="287" stroke="rgb(0,0,0)" stroke-width="1"/>
<line x1="91" y1="53" x2="104" y2="53" stroke="rgb(200,0,0)" stroke-width="1"/>
<rect width="13" height="39" x="108" y="53" style="fill:rgb(240,240,0);stroke:none"/>
<rect width="13" height="39" x="108" y="53" rx="0" ry="0" style="fill:none;stroke-width:1;stroke:rgb(0,0,0)"/>
<line x1="114" y1="53" x2="114" y2="53" stroke="rgb(0,0,0)" stroke-width="1"/>
<line x1="108" y1="53" x2="121" y2="53" stroke="rgb(0,0,0)" stroke-width="1"/>
<line x1="114" y1="287" x2="114" y2="92" stroke="rgb(0,0,0)" stroke-width="1"/>
<line x1="108" y1="287" x2="121" y2="287" stroke="rgb(0,0,0)" stroke-width="1"/>
<line x1="108" y1="53" x2="121" y2="53" stroke="rgb(200,0,0)" stroke-width="1"/>
<rect width="13" height="39" x="125" y="53" style="fill:rgb(240,240,0);stroke:none"/>
<rect width="13" height="39" x="125" y="53" rx="0" ry="0" style="fill:none;stroke-width:1;stroke:rgb(0,0,0)"/>
<line x1="131" y1="53" x2="131" y2="53" stroke="rgb(0,0,0)" stroke-width="1"/>
<line x1="125" y1="53" x2="138" y2="53" stroke="rgb(0,0,0)" stroke-width="1"/>
<line x1="131" y1="300" x2="131" y2="92" stroke="rgb(0,0,0)" stroke-width="1"/>
<line x1="125" y1="300" x2="138" y2="300" stroke="rgb(0,0,0)" stroke-width="1"/>
<line x1="125" y1="53" x2="138" y2="53" stroke="rgb(200,0,0)" stroke-width="1"/>
<rect width="13" height="39" x="142" y="53" style="fill:rgb(240,240,0);stroke:none"/>
<rect width="13" height="39" x="142" y="53" rx="0" ry="0" style="fill:none;stroke-width:1;stroke:rgb(0,0,0)"/>
<line x1="148" y1="53" x2="148" y2="53" stroke="rgb(0,0,0)" stroke-width="1"/>
<line x1="142" y1="53" x2="155" y2="53" stroke="rgb(0,0,0)" stroke-width="1"/>
<line x1="148" y1="313" x2="148" y2="92" stroke="rgb(0,0,0)" stroke-width="1"/>
<line x1="142" y1="313" x2="155" y2="313" stroke="rgb(0,0,0)" stroke-width="1"/>
<line x1="142" y1="53" x2="155" y2="53" stroke="rgb(200,0,0)" stroke-width="1"/>
<rect width="13" height="39" x="159" y="53" style="fill:rgb(240,240,0);stroke:none"/>
<rect width="13" height="39" x="159" y="53" rx="0" ry="0" style="fill:none;stroke-width:1;stroke:rgb(0,0,0)"/>
<line x1="165" y1="53" x2="165" y2="53" stroke="rgb(0,0,0)" stroke-width="1"/>
<line x1="159" y1="53" x2="172" y2="53" stroke="rgb(0,0,0)" stroke-width="1"/>
<line x1="165" y1="313" x2="165" y2="92" stroke="rgb(0,0,0)" stroke-width="1"/>
<line x1="159" y1="313" x2="172" y2="313" stroke="rgb(0,0,0)" stroke-width="1"/>
<line x1="159" y1="53" x2="172" y2="53" stroke="rgb(200,0,0)" stroke-width="1"/>
<rect width="13" height="39" x="176" y="53" style="fill:rgb(240,240,0);stroke:none"/>
<rect width="13" height="39" x="176" y="53" rx="0" ry="0" style="fill:none;stroke-width:1;stroke:rgb(0,0,0)"/>
<line x1="182" y1="53" x2="182" y2="53" stroke="rgb(0,0,0)" stroke-width="1"/>
<line x1="176" y1="53" x2="189" y2="53" stroke="rgb(0,0,0)" stroke-width="1"/>
<line x1="182" y1="320" x2="182" y2="92" stroke="rgb(0,0,0)" stroke-width="1"/>
<line x1="176" y1="320" x2="189" y2="320" stroke="rgb(0,0,0)" stroke-width="1"/>
<line x1="176" y1="53" x2="189" y2="53" stroke="rgb(200,0,0)" stroke-width="1"/>
<rect width="13" height="39" x="193" y="53" style="fill:rgb(240,240,0);stroke:none"/>
<rect width="13" height="39" x="193" y="53" rx="0" ry="0" style="fill:none;stroke-width:1;stroke:rgb(0,0,0)"/>
<line x1="199" y1="53" x2="199" y2="53" stroke="rgb(0,0,0)" stroke-width="1"/>
<line x1="193" y1="53" x2="206" y2="53" stroke="rgb(0,0,0)" stroke-width="1"/>
<line x1="199" y1="326" x2="199" y2="92" stroke="rgb(0,0,0)" stroke-width="1"/>
<line x1="193" y1="326" x2="206" y2="326" stroke="rgb(0,0,0)" stroke-width="1"/>
<line x1="193" y1="66" x2="206" y2="66" stroke="rgb(200,0,0)" stroke-width="1"/>
<rect width="13" height="52" x="210" y="53" style="fill:rgb(240,240,0);stroke:none"/>
<rect width="13" height="52" x="210" y="53" rx="0" ry="0" style="fill:none;stroke-width:1;stroke:rgb(0,0,0)"/>
<line x1="216" y1="53" x2="216" y2="53" stroke="rgb(0,0,0)" stroke-width="1"/>
<line x1="210" y1="53" x2="223" y2="53" stroke="rgb(0,0,0)" stroke-width="1"/>
<line x1="216" y1="339" x2="216" y2="105" stroke="rgb(0,0,0)" stroke-width="1"/>
<line x1="210" y1="339" x2="223" y2="339" stroke="rgb(0,0,0)" stroke-width="1"/>
<line x1="210" y1="66" x2="223" y2="66" stroke="rgb(200,0,0)" stroke-width="1"/>
<rect width="13" height="52" x="227" y="53" style="fill:rgb(240,240,0);stroke:none"/>
<rect width="13" height="52" x="227" y="53" rx="0" ry="0" style="fill:none;stroke-width:1;stroke:rgb(0,0,0)"/>
<line x1="233" y1="53" x2="233" y2="53" stroke="rgb(0,0,0)" stroke-width="1"/>
<line x1="227" y1="53" x2="240" y2="53" stroke="rgb(0,0,0)" stroke-width="1"/>
<line x1="233" y1="378" x2="233" y2="105" stroke="rgb(0,0,0)" stroke-width="1"/>
<line x1="227" y1="378" x2="240" y2="378" stroke="rgb(0,0,0)" stroke-width="1"/>
<line x1="227" y1="66" x2="240" y2="66" stroke="rgb(200,0,0)" stroke-width="1"/>
<rect width="13" height="46" x="244" y="53" style="fill:rgb(240,240,0);stroke:none"/>
<rect width="13" height="46" x="244" y="53" rx="0" ry="0" style="fill:none;stroke-width:1;stroke:rgb(0,0,0)"/>
<line x1="250" y1="53" x2="250" y2="53" stroke="rgb(0,0,0)" stroke-width="1"/>
<line x1="244" y1="53" x2="257" y2="53" stroke="rgb(0,0,0)" stroke-width="1"/>
<line x1="250" y1="378" x2="250" y2="99" stroke="rgb(0,0,0)" stroke-width="1"/>
<line x1="244" y1="378" x2="257" y2="378" stroke="rgb(0,0,0)" stroke-width="1"/>
<line x1="244" y1="66" x2="257" y2="66" stroke="rgb(200,0,0)" stroke-width="1"/>
<rect width="13" height="39" x="261" y="53" style="fill:rgb(240,240,0);stroke:none"/>
<rect width="13" height="39" x="261" y="53" rx="0" ry="0" style="fill:none;stroke-width:1;stroke:rgb(0,0,0)"/>
<line x1="267" y1="53" x2="267" y2="53" stroke="rgb(0,0,0)" stroke-width="1"/>
<line x1="261" y1="53" x2="274" y2="53" stroke="rgb(0,0,0)" stroke-width="1"/>
<line x1="267" y1="411" x2="267" y2="92" stroke="rgb(0,0,0)" stroke-width="1"/>
<line x1="261" y1="411" x2="274" y2="411" stroke="rgb(0,0,0)" stroke-width="1"/>
<line x1="261" y1="60" x2="274" y2="60" stroke="rgb(200,0,0)" stroke-width="1"/>
<rect width="13" height="39" x="278" y="53" style="fill:rgb(240,240,0);stroke:none"/>
<rect width="13" height="39" x="278" y="53" rx="0" ry="0" style="fill:none;stroke-width:1;stroke:rgb(0,0,0)"/>
<line x1="284" y1="53" x2="284" y2="53" stroke="rgb(0,0,0)" stroke-width="1"/>
<line x1="278" y1="53" x2="291" y2="53" stroke="rgb(0,0,0)" stroke-width="1"/>
<line x1="284" y1="450" x2="284" y2="92" stroke="rgb(0,0,0)" stroke-width="1"/>
<line x1="278" y1="450" x2="291" y2="450" stroke="rgb(0,0,0)" stroke-width="1"/>
<line x1="278" y1="60" x2="291" y2="60" stroke="rgb(200,0,0)" stroke-width="1"/>
<rect width="13" height="46" x="295" y="53" style="fill:rgb(240,240,0);stroke:none"/>
<rect width="13" height="46" x="295" y="53" rx="0" ry="0" style="fill:none;stroke-width:1;stroke:rgb(0,0,0)"/>
<line x1="301" y1="53" x2="301" y2="53" stroke="rgb(0,0,0)" stroke-width="1"/>
<line x1="295" y1="53" x2="308" y2="53" stroke="rgb(0,0,0)" stroke-width="1"/>
<line x1="301" y1="534" x2="301" y2="99" stroke="rgb(0,0,0)" stroke-width="1"/>
<line x1="295" y1="534" x2="308" y2="534" stroke="rgb(0,0,0)" stroke-width="1"/>
<line x1="295" y1="66" x2="308" y2="66" stroke="rgb(200,0,0)" stroke-width="1"/>
<rect width="13" height="52" x="312" y="53" style="fill:rgb(240,240,0);stroke:none"/>
<rect width="13" height="52" x="312" y="53" rx="0" ry="0" style="fill:none;stroke-width:1;stroke:rgb(0,0,0)"/>
<line x1="318" y1="53" x2="318" y2="53" stroke="rgb(0,0,0)" stroke-width="1"/>
<line x1="312" y1="53" x2="325" y2="53" stroke="rgb(0,0,0)" stroke-width="1"/>
<line x1="318" y1="534" x2="318" y2="105" stroke="rgb(0,0,0)" stroke-width="1"/>
<line x1="312" y1="534" x2="325" y2="534" stroke="rgb(0,0,0)" stroke-width="1"/>
<line x1="312" y1="66" x2="325" y2="66" stroke="rgb(200,0,0)" stroke-width="1"/>
<rect width="13" height="52" x="329" y="53" style="fill:rgb(240,240,0);stroke:none"/>
<rect width="13" height="52" x="329" y="53" rx="0" ry="0" style="fill:none;stroke-width:1;stroke:rgb(0,0,0)"/>
<line x1="335" y1="53" x2="335" y2="53" stroke="rgb(0,0,0)" stroke-width="1"/>
<line x1="329" y1="53" x2="342" y2="53" stroke="rgb(0,0,0)" stroke-width="1"/>
<line x1="335" y1="534" x2="335" y2="105" stroke="rgb(0,0,0)" stroke-width="1"/>
<line x1="329" y1="534" x2="342" y2="534" stroke="rgb(0,0,0)" stroke-width="1"/>
<line x1="329" y1="66" x2="342" y2="66" stroke="rgb(200,0,0)" stroke-width="1"/>
<rect width="13" height="52" x="346" y="53" style="fill:rgb(240,240,0);stroke:none"/>
<rect width="13" height="52" x="346" y="53" rx="0" ry="0" style="fill:none;stroke-width:1;stroke:rgb(0,0,0)"/>
<line x1="352" y1="53" x2="352" y2="53" stroke="rgb(0,0,0)" stroke-width="1"/>
<line x1="346" y1="53" x2="359" y2="53" stroke="rgb(0,0,0)" stroke-width="1"/>
<line x1="352" y1="534" x2="352" y2="105" stroke="rgb(0,0,0)" stroke-width="1"/>
<line x1="346" y1="534" x2="359" y2="534" stroke="rgb(0,0,0)" stroke-width="1"/>
<line x1="346" y1="66" x2="359" y2="66" stroke="rgb(200,0,0)" stroke-width="1"/>
<rect width="13" height="59" x="363" y="53" style="fill:rgb(240,240,0);stroke:none"/>
<rect width="13" height="59" x="363" y="53" rx="0" ry="0" style="fill:none;stroke-width:1;stroke:rgb(0,0,0)"/>
<line x1="369" y1="53" x2="369" y2="53" stroke="rgb(0,0,0)" stroke-width="1"/>
<line x1="363" y1="53" x2="376" y2="53" stroke="rgb(0,0,0)" stroke-width="1"/>
<line x1="369" y1="534" x2="369" y2="112" stroke="rgb(0,0,0)" stroke-width="1"/>
<line x1="363" y1="534" x2="376" y2="534" stroke="rgb(0,0,0)" stroke-width="1"/>
<line x1="363" y1="66" x2="376" y2="66" stroke="rgb(200,0,0)" stroke-width="1"/>
<rect width="13" height="65" x="380" y="53" style="fill:rgb(240,240,0);stroke:none"/>
<rect width="13" height="65" x="380" y="53" rx="0" ry="0" style="fill:none;stroke-width:1;stroke:rgb(0,0,0)"/>
<line x1="386" y1="53" x2="386" y2="53" stroke="rgb(0,0,0)" stroke-width="1"/>
<line x1="380" y1="53" x2="393" y2="53" stroke="rgb(0,0,0)" stroke-width="1"/>
<line x1="386" y1="534" x2="386" y2="118" stroke="rgb(0,0,0)" stroke-width="1"/>
<line x1="380" y1="534" x2="393" y2="534" stroke="rgb(0,0,0)" stroke-width="1"/>
<line x1="380" y1="66" x2="393" y2="66" stroke="rgb(200,0,0)" stroke-width="1"/>
<rect width="13" height="72" x="397" y="53" style="fill:rgb(240,240,0);stroke:none"/>
<rect width="13" height="72" x="397" y="53" rx="0" ry="0" style="fill:none;stroke-width:1;stroke:rgb(0,0,0)"/>
<line x1="403" y1="53" x2="403" y2="53" stroke="rgb(0,0,0)" stroke-width="1"/>
<line x1="397" y1="53" x2="410" y2="53" stroke="rgb(0,0,0)" stroke-width="1"/>
<line x1="403" y1="534" x2="403" y2="125" stroke="rgb(0,0,0)" stroke-width="1"/>
<line x1="397" y1="534" x2="410" y2="534" stroke="rgb(0,0,0)" stroke-width="1"/>
<line x1="397" y1="66" x2="410" y2="66" stroke="rgb(200,0,0)" stroke-width="1"/>
<rect width="13" height="78" x="414" y="53" style="fill:rgb(240,240,0);stroke:none"/>
<rect width="13" height="78" x="414" y="53" rx="0" ry="0" style="fill:none;stroke-width:1;stroke:rgb(0,0,0)"/>
<line x1="420" y1="53" x2="420" y2="53" stroke="rgb(0,0,0)" stroke-width="1"/>
<line x1="414" y1="53" x2="427" y2="53" stroke="rgb(0,0,0)" stroke-width="1"/>
<line x1="420" y1="534" x2="420" y2="131" stroke="rgb(0,0,0)" stroke-width="1"/>
<line x1="414" y1="534" x2="427" y2="534" stroke="rgb(0,0,0)" stroke-width="1"/>
<line x1="414" y1="73" x2="427" y2="73" stroke="rgb(200,0,0)" stroke-width="1"/>
<rect width="13" height="78" x="431" y="53" style="fill:rgb(240,240,0);stroke:none"/>
<rect width="13" height="78" x="431" y="53" rx="0" ry="0" style="fill:none;stroke-width:1;stroke:rgb(0,0,0)"/>
<line x1="437" y1="53" x2="437" y2="53" stroke="rgb(0,0,0)" stroke-width="1"/>
<line x1="431" y1="53" x2="444" y2="53" stroke="rgb(0,0,0)" stroke-width="1"/>
<line x1="437" y1="534" x2="437" y2="131" stroke="rgb(0,0,0)" stroke-width="1"/>
<line x1="431" y1="534" x2="444" y2="534" stroke="rgb(0,0,0)" stroke-width="1"/>
<line x1="431" y1="79" x2="444" y2="79" stroke="rgb(200,0,0)" stroke-width="1"/>
<rect width="13" height="91" x="448" y="53" style="fill:rgb(240,240,0);stroke:none"/>
<rect width="13" height="91" x="448" y="53" rx="0" ry="0" style="fill:none;stroke-width:1;stroke:rgb(0,0,0)"/>
<line x1="454" y1="53" x2="454" y2="53" stroke="rgb(0,0,0)" stroke-width="1"/>
<line x1="448" y1="53" x2="461" y2="53" stroke="rgb(0,0,0)" stroke-width="1"/>
<line x1="454" y1="534" x2="454" y2="144" stroke="rgb(0,0,0)" stroke-width="1"/>
<line x1="448" y1="534" x2="461" y2="534" stroke="rgb(0,0,0)" stroke-width="1"/>
<line x1="448" y1="79" x2="461" y2="79" stroke="rgb(200,0,0)" stroke-width="1"/>
<rect width="13" height="104" x="465" y="53" style="fill:rgb(240,240,0);stroke:none"/>
<rect width="13" height="104" x="465" y="53" rx="0" ry="0" style="fill:none;stroke-width:1;stroke:rgb(0,0,0)"/>
<line x1="471" y1="53" x2="471" y2="53" stroke="rgb(0,0,0)" stroke-width="1"/>
<line x1="465" y1="53" x2="478" y2="53" stroke="rgb(0,0,0)" stroke-width="1"/>
<line x1="471" y1="534" x2="471" y2="157" stroke="rgb(0,0,0)" stroke-width="1"/>
<line x1="465" y1="534" x2="478" y2="534" stroke="rgb(0,0,0)" stroke-width="1"/>
<line x1="465" y1="79" x2="478" y2="79" stroke="rgb(200,0,0)" stroke-width="1"/>
<rect width="13" height="111" x="482" y="53" style="fill:rgb(240,240,0);stroke:none"/>
<rect width="13" height="111" x="482" y="53" rx="0" ry="0" style="fill:none;stroke-width:1;stroke:rgb(0,0,0)"/>
<line x1="488" y1="53" x2="488" y2="53" stroke="rgb(0,0,0)" stroke-width="1"/>
<line x1="482" y1="53" x2="495" y2="53" stroke="rgb(0,0,0)" stroke-width="1"/>
<line x1="488" y1="534" x2="488" y2="164" stroke="rgb(0,0,0)" stroke-width="1"/>
<line x1="482" y1="534" x2="495" y2="534" stroke="rgb(0,0,0)" stroke-width="1"/>
<line x1="482" y1="79" x2="495" y2="79" stroke="rgb(200,0,0)" stroke-width="1"/>
<rect width="13" height="117" x="499" y="53" style="fill:rgb(240,240,0);stroke:none"/>
<rect width="13" height="117" x="499" y="53" rx="0" ry="0" style="fill:none;stroke-width:1;stroke:rgb(0,0,0)"/>
<line x1="505" y1="53" x2="505" y2="53" stroke="rgb(0,0,0)" stroke-width="1"/>
<line x1="499" y1="53" x2="512" y2="53" stroke="rgb(0,0,0)" stroke-width="1"/>
<line x1="505" y1="534" x2="505" y2="170" stroke="rgb(0,0,0)" stroke-width="1"/>
<line x1="499" y1="534" x2="512" y2="534" stroke="rgb(0,0,0)" stroke-width="1"/>
<line x1="499" y1="92" x2="512" y2="92" stroke="rgb(200,0,0)" stroke-width="1"/>
<rect width="13" height="124" x="516" y="66" style="fill:rgb(240,240,0);stroke:none"/>
<rect width="13" height="124" x="516" y="66" rx="0" ry="0" style="fill:none;stroke-width:1;stroke:rgb(0,0,0)"/>
<line x1="522" y1="53" x2="522" y2="66" stroke="rgb(0,0,0)" stroke-width="1"/>
<line x1="516" y1="53" x2="529" y2="53" stroke="rgb(0,0,0)" stroke-width="1"/>
<line x1="522" y1="534" x2="522" y2="190" stroke="rgb(0,0,0)" stroke-width="1"/>
<line x1="516" y1="534" x2="529" y2="534" stroke="rgb(0,0,0)" stroke-width="1"/>
<line x1="516" y1="92" x2="529" y2="92" stroke="rgb(200,0,0)" stroke-width="1"/>
<rect width="13" height="143" x="533" y="66" style="fill:rgb(240,240,0);stroke:none"/>
<rect width="13" height="143" x="533" y="66" rx="0" ry="0" style="fill:none;stroke-width:1;stroke:rgb(0,0,0)"/>
<line x1="539" y1="53" x2="539" y2="66" stroke="rgb(0,0,0)" stroke-width="1"/>
<line x1="533" y1="53" x2="546" y2="53" stroke="rgb(0,0,0)" stroke-width="1"/>
<line x1="539" y1="534" x2="539" y2="209" stroke="rgb(0,0,0)" stroke-width="1"/>
<line x1="533" y1="534" x2="546" y2="534" stroke="rgb(0,0,0)" stroke-width="1"/>
<line x1="533" y1="92" x2="546" y2="92" stroke="rgb(200,0,0)" stroke-width="1"/>
<rect width="13" height="156" x="550" y="66" style="fill:rgb(240,240,0);stroke:none"/>
<rect width="13" height="156" x="550" y="66" rx="0" ry="0" style="fill:none;stroke-width:1;stroke:rgb(0,0,0)"/>
<line x1="556" y1="53" x2="556" y2="66" stroke="rgb(0,0,0)" stroke-width="1"/>
<line x1="550" y1="53" x2="563" y2="53" stroke="rgb(0,0,0)" stroke-width="1"/>
<line x1="556" y1="534" x2="556" y2="222" stroke="rgb(0,0,0)" stroke-width="1"/>
<line x1="550" y1="534" x2="563" y2="534" stroke="rgb(0,0,0)" stroke-width="1"/>
<line x1="550" y1="105" x2="563" y2="105" stroke="rgb(200,0,0)" stroke-width="1"/>
<rect width="13" height="182" x="567" y="73" style="fill:rgb(240,240,0);stroke:none"/>
<rect width="13" height="182" x="567" y="73" rx="0" ry="0" style="fill:none;stroke-width:1;stroke:rgb(0,0,0)"/>
<line x1="573" y1="53" x2="573" y2="73" stroke="rgb(0,0,0)" stroke-width="1"/>
<line x1="567" y1="53" x2="580" y2="53" stroke="rgb(0,0,0)" stroke-width="1"/>
<line x1="573" y1="534" x2="573" y2="255" stroke="rgb(0,0,0)" stroke-width="1"/>
<line x1="567" y1="534" x2="580" y2="534" stroke="rgb(0,0,0)" stroke-width="1"/>
<line x1="567" y1="105" x2="580" y2="105" stroke="rgb(200,0,0)" stroke-width="1"/>
<rect width="13" height="208" x="584" y="79" style="fill:rgb(240,240,0);stroke:none"/>
<rect width="13" height="208" x="584" y="79" rx="0" ry="0" style="fill:none;stroke-width:1;stroke:rgb(0,0,0)"/>
<line x1="590" y1="53" x2="590" y2="79" stroke="rgb(0,0,0)" stroke-width="1"/>
<line x1="584" y1="53" x2="597" y2="53" stroke="rgb(0,0,0)" stroke-width="1"/>
<line x1="590" y1="534" x2="590" y2="287" stroke="rgb(0,0,0)" stroke-width="1"/>
<line x1="584" y1="534" x2="597" y2="534" stroke="rgb(0,0,0)" stroke-width="1"/>
<line x1="584" y1="118" x2="597" y2="118" stroke="rgb(200,0,0)" stroke-width="1"/>
<rect width="13" height="273" x="601" y="79" style="fill:rgb(240,240,0);stroke:none"/>
<rect width="13" height="273" x="601" y="79" rx="0" ry="0" style="fill:none;stroke-width:1;stroke:rgb(0,0,0)"/>
<line x1="607" y1="53" x2="607" y2="79" stroke="rgb(0,0,0)" stroke-width="1"/>
<line x1="601" y1="53" x2="614" y2="53" stroke="rgb(0,0,0)" stroke-width="1"/>
<line x1="607" y1="534" x2="607" y2="352" stroke="rgb(0,0,0)" stroke-width="1"/>
<line x1="601" y1="534" x2="614" y2="534" stroke="rgb(0,0,0)" stroke-width="1"/>
<line x1="601" y1="118" x2="614" y2="118" stroke="rgb(200,0,0)" stroke-width="1"/>
<rect width="13" height="338" x="618" y="79" style="fill:rgb(240,240,0);stroke:none"/>
<rect width="13" height="338" x="618" y="79" rx="0" ry="0" style="fill:none;stroke-width:1;stroke:rgb(0,0,0)"/>
<line x1="624" y1="60" x2="624" y2="79" stroke="rgb(0,0,0)" stroke-width="1"/>
<line x1="618" y1="60" x2="631" y2="60" stroke="rgb(0,0,0)" stroke-width="1"/>
<line x1="624" y1="534" x2="624" y2="417" stroke="rgb(0,0,0)" stroke-width="1"/>
<line x1="618" y1="534" x2="631" y2="534" stroke="rgb(0,0,0)" stroke-width="1"/>
<line x1="618" y1="131" x2="631" y2="131" stroke="rgb(200,0,0)" stroke-width="1"/>
<rect width="13" height="448" x="635" y="86" style="fill:rgb(240,240,0);stroke:none"/>
<rect width="13" height="448" x="635" y="86" rx="0" ry="0" style="fill:none;stroke-width:1;stroke:rgb(0,0,0)"/>
<line x1="641" y1="66" x2="641" y2="86" stroke="rgb(0,0,0)" stroke-width="1"/>
<line x1="635" y1="66" x2="648" y2="66" stroke="rgb(0,0,0)" stroke-width="1"/>
<line x1="641" y1="534" x2="641" y2="534" stroke="rgb(0,0,0)" stroke-width="1"/>
<line x1="635" y1="534" x2="648" y2="534" stroke="rgb(0,0,0)" stroke-width="1"/>
<line x1="635" y1="131" x2="648" y2="131" stroke="rgb(200,0,0)" stroke-width="1"/>
<rect width="13" height="442" x="652" y="92" style="fill:rgb(240,240,0);stroke:none"/>
<rect width="13" height="442" x="652" y="92" rx="0" ry="0" style="fill:none;stroke-width:1;stroke:rgb(0,0,0)"/>
<line x1="658" y1="66" x2="658" y2="92" stroke="rgb(0,0,0)" stroke-width="1"/>
<line x1="652" y1="66" x2="665" y2="66" stroke="rgb(0,0,0)" stroke-width="1"/>
<line x1="658" y1="534" x2="658" y2="534" stroke="rgb(0,0,0)" stroke-width="1"/>
<line x1="652" y1="534" x2="665" y2="534" stroke="rgb(0,0,0)" stroke-width="1"/>
<line x1="652" y1="144" x2="665" y2="144" stroke="rgb(200,0,0)" stroke-width="1"/>
<rect width="13" height="442" x="669" y="92" style="fill:rgb(240,240,0);stroke:none"/>
<rect width="13" height="442" x="669" y="92" rx="0" ry="0" style="fill:none;stroke-width:1;stroke:rgb(0,0,0)"/>
<line x1="675" y1="66" x2="675" y2="92" stroke="rgb(0,0,0)" stroke-width="1"/>
<line x1="669" y1="66" x2="682" y2="66" stroke="rgb(0,0,0)" stroke-width="1"/>
<line x1="675" y1="534" x2="675" y2="534" stroke="rgb(0,0,0)" stroke-width="1"/>
<line x1="669" y1="534" x2="682" y2="534" stroke="rgb(0,0,0)" stroke-width="1"/>
<line x1="669" y1="151" x2="682" y2="151" stroke="rgb(200,0,0)" stroke-width="1"/>
<rect width="13" height="435" x="686" y="99" style="fill:rgb(240,240,0);stroke:none"/>
<rect width="13" height="435" x="686" y="99" rx="0" ry="0" style="fill:none;stroke-width:1;stroke:rgb(0,0,0)"/>
<line x1="692" y1="73" x2="692" y2="99" stroke="rgb(0,0,0)" stroke-width="1"/>
<line x1="686" y1="73" x2="699" y2="73" stroke="rgb(0,0,0)" stroke-width="1"/>
<line x1="692" y1="534" x2="692" y2="534" stroke="rgb(0,0,0)" stroke-width="1"/>
<line x1="686" y1="534" x2="699" y2="534" stroke="rgb(0,0,0)" stroke-width="1"/>
<line x1="686" y1="170" x2="699" y2="170" stroke="rgb(200,0,0)" stroke-width="1"/>
<rect width="13" height="429" x="703" y="105" style="fill:rgb(240,240,0);stroke:none"/>
<rect width="13" height="429" x="703" y="105" rx="0" ry="0" style="fill:none;stroke-width:1;stroke:rgb(0,0,0)"/>
<line x1="709" y1="79" x2="709" y2="105" stroke="rgb(0,0,0)" stroke-width="1"/>
<line x1="703" y1="79" x2="716" y2="79" stroke="rgb(0,0,0)" stroke-width="1"/>
<line x1="709" y1="534" x2="709" y2="534" stroke="rgb(0,0,0)" stroke-width="1"/>
<line x1="703" y1="534" x2="716" y2="534" stroke="rgb(0,0,0)" stroke-width="1"/>
<line x1="703" y1="190" x2="716" y2="190" stroke="rgb(200,0,0)" stroke-width="1"/>
<rect width="13" height="422" x="720" y="112" style="fill:rgb(240,240,0);stroke:none"/>
<rect width="13" height="422" x="720" y="112" rx="0" ry="0" style="fill:none;stroke-width:1;stroke:rgb(0,0,0)"/>
<line x1="726" y1="79" x2="726" y2="112" stroke="rgb(0,0,0)" stroke-width="1"/>
<line x1="720" y1="79" x2="733" y2="79" stroke="rgb(0,0,0)" stroke-width="1"/>
<line x1="726" y1="534" x2="726" y2="534" stroke="rgb(0,0,0)" stroke-width="1"/>
<line x1="720" y1="534" x2="733" y2="534" stroke="rgb(0,0,0)" stroke-width="1"/>
<line x1="720" y1="222" x2="733" y2="222" stroke="rgb(200,0,0)" stroke-width="1"/>
<rect width="13" height="377" x="737" y="157" style="fill:rgb(240,240,0);stroke:none"/>
<rect width="13" height="377" x="737" y="157" rx="0" ry="0" style="fill:none;stroke-width:1;stroke:rgb(0,0,0)"/>
<line x1="743" y1="105" x2="743" y2="157" stroke="rgb(0,0,0)" stroke-width="1"/>
<line x1="737" y1="105" x2="750" y2="105" stroke="rgb(0,0,0)" stroke-width="1"/>
<line x1="743" y1="534" x2="743" y2="534" stroke="rgb(0,0,0)" stroke-width="1"/>
<line x1="737" y1="534" x2="750" y2="534" stroke="rgb(0,0,0)" stroke-width="1"/>
<line x1="737" y1="326" x2="750" y2="326" stroke="rgb(200,0,0)" stroke-width="1"/>
<line x1="29" y1="112" x2="46" y2="120" stroke="rgb(0,0,200)" stroke-width="1"/>
<line x1="46" y1="120" x2="63" y2="120" stroke="rgb(0,0,200)" stroke-width="1"/>
<line x1="63" y1="120" x2="80" y2="120" stroke="rgb(0,0,200)" stroke-width="1"/>
<line x1="80" y1="120" x2="97" y2="120" stroke="rgb(0,0,200)" stroke-width="1"/>
<line x1="97" y1="120" x2="114" y2="119" stroke="rgb(0,0,200)" stroke-width="1"/>
<line x1="114" y1="119" x2="131" y2="120" stroke="rgb(0,0,200)" stroke-width="1"/>
<line x1="131" y1="120" x2="148" y2="121" stroke="rgb(0,0,200)" stroke-width="1"/>
<line x1="148" y1="121" x2="165" y2="121" stroke="rgb(0,0,200)" stroke-width="1"/>
<line x1="165" y1="121" x2="182" y2="121" stroke="rgb(0,0,200)" stroke-width="1"/>
<line x1="182" y1="121" x2="199" y2="122" stroke="rgb(0,0,200)" stroke-width="1"/>
<line x1="199" y1="122" x2="216" y2="124" stroke="rgb(0,0,200)" stroke-width="1"/>
<line x1="216" y1="124" x2="233" y2="126" stroke="rgb(0,0,200)" stroke-width="1"/>
<line x1="233" y1="126" x2="250" y2="125" stroke="rgb(0,0,200)" stroke-width="1"/>
<line x1="250" y1="125" x2="267" y2="124" stroke="rgb(0,0,200)" stroke-width="1"/>
<line x1="267" y1="124" x2="284" y2="125" stroke="rgb(0,0,200)" stroke-width="1"/>
<line x1="284" y1="125" x2="301" y2="126" stroke="rgb(0,0,200)" stroke-width="1"/>
<line x1="301" y1="126" x2="318" y2="128" stroke="rgb(0,0,200)" stroke-width="1"/>
<line x1="318" y1="128" x2="335" y2="131" stroke="rgb(0,0,200)" stroke-width="1"/>
<line x1="335" y1="131" x2="352" y2="133" stroke="rgb(0,0,200)" stroke-width="1"/>
<line x1="352" y1="133" x2="369" y2="135" stroke="rgb(0,0,200)" stroke-width="1"/>
<line x1="369" y1="135" x2="386" y2="137" stroke="rgb(0,0,200)" stroke-width="1"/>
<line x1="386" y1="137" x2="403" y2="141" stroke="rgb(0,0,200)" stroke-width="1"/>
<line x1="403" y1="141" x2="420" y2="144" stroke="rgb(0,0,200)" stroke-width="1"/>
<line x1="420" y1="144" x2="437" y2="149" stroke="rgb(0,0,200)" stroke-width="1"/>
<line x1="437" y1="149" x2="454" y2="154" stroke="rgb(0,0,200)" stroke-width="1"/>
<line x1="454" y1="154" x2="471" y2="159" stroke="rgb(0,0,200)" stroke-width="1"/>
<line x1="471" y1="159" x2="488" y2="164" stroke="rgb(0,0,200)" stroke-width="1"/>
<line x1="488" y1="164" x2="505" y2="169" stroke="rgb(0,0,200)" stroke-width="1"/>
<line x1="505" y1="169" x2="522" y2="176" stroke="rgb(0,0,200)" stroke-width="1"/>
<line x1="522" y1="176" x2="539" y2="183" stroke="rgb(0,0,200)" stroke-width="1"/>
<line x1="539" y1="183" x2="556" y2="189" stroke="rgb(0,0,200)" stroke-width="1"/>
<line x1="556" y1="189" x2="573" y2="199" stroke="rgb(0,0,200)" stroke-width="1"/>
<line x1="573" y1="199" x2="590" y2="208" stroke="rgb(0,0,200)" stroke-width="1"/>
<line x1="590" y1="208" x2="607" y2="217" stroke="rgb(0,0,200)" stroke-width="1"/>
<line x1="607" y1="217" x2="624" y2="227" stroke="rgb(0,0,200)" stroke-width="1"/>
<line x1="624" y1="227" x2="641" y2="234" stroke="rgb(0,0,200)" stroke-width="1"/>
<line x1="641" y1="234" x2="658" y2="246" stroke="rgb(0,0,200)" stroke-width="1"/>
<line x1="658" y1="246" x2="675" y2="254" stroke="rgb(0,0,200)" stroke-width="1"/>
<line x1="675" y1="254" x2="692" y2="275" stroke="rgb(0,0,200)" stroke-width="1"/>
<line x1="692" y1="275" x2="709" y2="294" stroke="rgb(0,0,200)" stroke-width="1"/>
<line x1="709" y1="294" x2="726" y2="308" stroke="rgb(0,0,200)" stroke-width="1"/>
<line x1="726" y1="308" x2="743" y2="346" stroke="rgb(0,0,200)" stroke-width="1"/>
</svg>
