<?xml version="1.0" standalone="no"?>
<!DOCTYPE svg PUBLIC "-//W3C//DTD SVG 1.1//EN" "http://www.w3.org/Graphics/SVG/1.1/DTD/svg11.dtd">
<svg width="800" height="600" version="1.1" xmlns="http://www.w3.org/2000/svg">
<rect width="800" height="600" x="0" y="0" style="fill:rgb(238,238,238);stroke:none"/>
<rect width="800" height="600" x="0" y="0" style="fill:rgb(255,255,255);stroke:none"/>
<text x="2" y="566" fill="rgb(0,0,0)" font-family="Arial" font-size="12">0</text>
<text x="2" y="515" fill="rgb(0,0,0)" font-family="Arial" font-size="12">50000</text>
<text x="2" y="463" fill="rgb(0,0,0)" font-family="Arial" font-size="12">100000</text>
<text x="2" y="410" fill="rgb(0,0,0)" font-family="Arial" font-size="12">150000</text>
<text x="2" y="359" fill="rgb(0,0,0)" font-family="Arial" font-size="12">200000</text>
<text x="2" y="306" fill="rgb(0,0,0)" font-family="Arial" font-size="12">250000</text>
<text x="2" y="254" fill="rgb(0,0,0)" font-family="Arial" font-size="12">300000</text>
<text x="2" y="203" fill="rgb(0,0,0)" font-family="Arial" font-size="12">350000</text>
<text x="2" y="151" fill="rgb(0,0,0)" font-family="Arial" font-size="12">400000</text>
<text x="2" y="99" fill="rgb(0,0,0)" font-family="Arial" font-size="12">450000</text>
<text x="2" y="46" fill="rgb(0,0,0)" font-family="Arial" font-size="12">500000</text>
<text x="273" y="30" fill="rgb(0,0,0)" font-family="Arial" font-size="12">Distribution of sequence lengths over all sequences</text>
<line x1="53" y1="560" x2="790" y2="560" stroke="rgb(0,0,0)" stroke-width="1"/>
<line x1="53" y1="560" x2="53" y2="40" stroke="rgb(0,0,0)" stroke-width="1"/>
<text x="338" y="595" fill="rgb(0,0,0)" font-family="Arial" font-size="12">Sequence Length (bp)</text>
<text x="167" y="575" fill="rgb(0,0,0)" font-family="Arial" font-size="12">75</text>
<rect width="245" height="520" x="298" y="40" style="fill:rgb(230,230,230);stroke:none"/>
<text x="412" y="575" fill="rgb(0,0,0)" font-family="Arial" font-size="12">76</text>
<text x="657" y="575" fill="rgb(0,0,0)" font-family="Arial" font-size="12">77</text>
<line x1="53" y1="560" x2="790" y2="560" stroke="rgb(180,180,180)" stroke-width="1"/>
<line x1="53" y1="509" x2="790" y2="509" stroke="rgb(180,180,180)" stroke-width="1"/>
<line x1="53" y1="457" x2="790" y2="457" stroke="rgb(180,180,180)" stroke-width="1"/>
<line x1="53" y1="404" x2="790" y2="404" stroke="rgb(180,180,180)" stroke-width="1"/>
<line x1="53" y1="353" x2="790" y2="353" stroke="rgb(180,180,180)" stroke-width="1"/>
<line x1="53" y1="300" x2="790" y2="300" stroke="rgb(180,180,180)" stroke-width="1"/>
<line x1="53" y1="248" x2="790" y2="248" stroke="rgb(180,180,180)" stroke-width="1"/>
<line x1="53" y1="197" x2="790" y2="197" stroke="rgb(180,180,180)" stroke-width="1"/>
<line x1="53" y1="145" x2="790" y2="145" stroke="rgb(180,180,180)" stroke-width="1"/>
<line x1="53" y1="93" x2="790" y2="93" stroke="rgb(180,180,180)" stroke-width="1"/>
<line x1="53" y1="40" x2="790" y2="40" stroke="rgb(180,180,180)" stroke-width="1"/>
<line x1="175" y1="560" x2="420" y2="40" stroke="rgb(136,34,85)" stroke-width="1"/>
<line x1="420" y1="40" x2="665" y2="560" stroke="rgb(136,34,85)" stroke-width="1"/>
<rect width="111" height="23" x="679" y="40" style="fill:rgb(255,255,255);stroke:none"/>
<rect width="111" height="23" x="679" y="40" rx="0" ry="0" style="fill:none;stroke-width:1;stroke:rgb(192,192,192)"/>
<text x="682" y="55" fill="rgb(136,34,85)" font-family="Arial" font-size="12" font-weight="bold">Sequence Length</text>
</svg>
